<svg width="43" height="33" viewBox="0 0 43 33" fill="none" xmlns="http://www.w3.org/2000/svg">
<path d="M39.5562 5.95954H39.5554L37.8541 5.78555V4.66626H0V8.66625H36.4521V9.99961H0V23.9996C0 25.2049 0.850322 26.2143 2.00624 26.5436C2.0055 27.1509 2.20742 27.7382 2.61397 28.2182C3.08362 28.7729 3.75313 29.1196 4.49403 29.1956L36.8656 32.6509C36.9666 32.6616 37.0668 32.6662 37.1664 32.6662C38.5796 32.6662 39.7987 31.6496 39.9543 30.2755L42.044 8.89617C42.2095 7.43485 41.0935 6.11688 39.5562 5.95954ZM21.731 16.0229C21.731 15.6542 22.0451 15.3562 22.432 15.3562H33.6481C34.035 15.3562 34.3491 15.6542 34.3491 16.0229V21.9995C34.3491 22.3682 34.035 22.6661 33.6481 22.6661H22.4321C22.0452 22.6661 21.7311 22.3682 21.7311 21.9995V16.0229H21.731ZM11.9171 12.6662H17.5251C17.912 12.6662 18.2261 12.9648 18.2261 13.3328C18.2261 13.7015 17.912 13.9994 17.5251 13.9994H11.9171C11.5301 13.9994 11.2161 13.7015 11.2161 13.3328C11.216 12.9648 11.5301 12.6662 11.9171 12.6662ZM18.2261 15.9995C18.2261 16.3682 17.912 16.6662 17.5251 16.6662H15.4221C15.0352 16.6662 14.7211 16.3682 14.7211 15.9995C14.7211 15.6315 15.0352 15.3329 15.4221 15.3329H17.5251C17.912 15.3329 18.2261 15.6315 18.2261 15.9995ZM3.50504 12.6662H9.11309C9.50001 12.6662 9.81406 12.9648 9.81406 13.3328C9.81406 13.7015 9.50001 13.9994 9.11309 13.9994H3.50504C3.11812 13.9994 2.80406 13.7015 2.80406 13.3328C2.80398 12.9648 3.11804 12.6662 3.50504 12.6662ZM2.80398 15.9995C2.80398 15.6315 3.11804 15.3329 3.50496 15.3329H12.618C13.005 15.3329 13.319 15.6315 13.319 15.9995C13.319 16.3682 13.005 16.6662 12.618 16.6662H3.50504C3.11804 16.6662 2.80398 16.3682 2.80398 15.9995ZM40.649 8.76289L38.5594 30.1415C38.4767 30.8728 37.7882 31.4035 37.0186 31.3255L4.64691 27.8702C4.27469 27.8322 3.94026 27.6589 3.70548 27.3815C3.52952 27.1736 3.42511 26.9262 3.40055 26.6662H35.0501C36.5965 26.6662 37.8541 25.4709 37.8541 23.9996V9.99961V8.66625V7.12696L39.4061 7.28493C40.1744 7.36422 40.7325 8.02289 40.649 8.76289Z" fill="white"/>
<path d="M32.9474 16.6892H23.1333V21.3332H32.9474V16.6892Z" fill="white"/>
<path d="M37.8544 2.66663C37.8544 1.19593 36.5968 0 35.0504 0H2.80423C1.25778 0 0.000244141 1.19601 0.000244141 2.66663V3.33327H37.8544V2.66663Z" fill="white"/>
</svg>
