<svg width="43" height="36" viewBox="0 0 43 36" fill="none" xmlns="http://www.w3.org/2000/svg">
<path d="M40.2637 14.8431H39.6479V13.085V6.83503C39.6479 4.78878 37.8974 3.12402 35.7459 3.12402H18.825L7.40933 0.0221523C7.40604 0.0212929 7.40267 0.020824 7.39939 0.0199647C7.39602 0.0191053 7.39282 0.0178554 7.38945 0.0170741C7.38255 0.0154335 7.37573 0.0146523 7.36891 0.013246C7.35831 0.0111367 7.34772 0.00894915 7.33712 0.00730853C7.32751 0.00582415 7.31806 0.00488665 7.30845 0.0037929C7.29728 0.0025429 7.28619 0.00144915 7.2751 0.000824149C7.26606 0.0003554 7.25711 0.000277214 7.24807 0.000120965C7.23657 -3.52851e-05 7.22515 -0.00011339 7.21373 0.000355359C7.20527 0.000667859 7.19681 0.00144906 7.18843 0.00207406C7.17668 0.00301155 7.16494 0.00402729 7.15335 0.00566791C7.14547 0.00676166 7.13766 0.00816789 7.12986 0.00949601C7.11787 0.0115273 7.10604 0.0137147 7.09429 0.016449C7.08698 0.0181678 7.07983 0.0201209 7.0726 0.0220741C7.06061 0.0253553 7.04878 0.0287147 7.03695 0.0326209C7.03029 0.0348866 7.02372 0.0373085 7.01707 0.0398085C7.00516 0.0441835 6.99333 0.0487927 6.98174 0.0538708C6.97558 0.0566052 6.96959 0.059574 6.96351 0.0624646C6.95192 0.0680115 6.94051 0.0736365 6.92933 0.0799647C6.9235 0.0831678 6.91791 0.0866052 6.91216 0.0900427C6.90116 0.0966052 6.89031 0.103324 6.8798 0.11059C6.87429 0.11434 6.86895 0.118402 6.86353 0.122386C6.85343 0.129808 6.84341 0.137386 6.83379 0.145433C6.82837 0.149964 6.8232 0.15473 6.81794 0.159418C6.8089 0.167543 6.79995 0.175668 6.79141 0.184261C6.78607 0.189652 6.78105 0.195277 6.77588 0.200902C6.76808 0.209417 6.76035 0.218011 6.75304 0.226996C6.74778 0.23348 6.74286 0.240121 6.73784 0.246761C6.73136 0.255433 6.72495 0.264183 6.71903 0.273167C6.71394 0.280824 6.70926 0.288792 6.70457 0.296683C6.6994 0.305355 6.69422 0.314105 6.68954 0.323089C6.68494 0.331839 6.68083 0.340824 6.67664 0.349808C6.67254 0.358636 6.66851 0.367464 6.6649 0.376527C6.66112 0.386058 6.65783 0.395823 6.65446 0.405667C6.65233 0.411995 6.6497 0.417933 6.64773 0.424339C6.64674 0.427542 6.64633 0.430667 6.64543 0.433792C6.64452 0.436995 6.64321 0.440042 6.64239 0.443245L5.93788 3.12387H3.95423C1.80695 3.12387 0.0594798 4.78191 0.052415 6.82253C0.0523329 6.82675 0.0517578 6.83073 0.0517578 6.83487V27.1473C0.0517578 27.4708 0.328599 27.7333 0.667873 27.7333C1.00797 27.7333 1.28399 27.4708 1.28399 27.1473V9.53745C1.98258 10.1621 2.92187 10.546 3.95423 10.546H35.7459C35.7466 10.546 35.7473 10.546 35.748 10.546C37.2191 10.5471 38.4157 11.6856 38.4157 13.0851V17.187H31.6375C31.637 17.187 31.6367 17.187 31.6363 17.187C31.6185 17.187 31.6007 17.1881 31.5831 17.1895C31.5634 17.1912 31.5441 17.1938 31.525 17.1972C31.5221 17.1977 31.5193 17.1979 31.5165 17.1984C31.5004 17.2015 31.4846 17.2056 31.4689 17.2098C31.4654 17.2107 31.4619 17.2113 31.4585 17.2124C31.4446 17.2164 31.431 17.2213 31.4175 17.2262C31.4123 17.2281 31.407 17.2296 31.4019 17.2317C31.3905 17.2361 31.3796 17.2413 31.3687 17.2464C31.3614 17.2497 31.3541 17.2527 31.3471 17.2563C31.3385 17.2606 31.3305 17.2655 31.3223 17.2702C31.3131 17.2753 31.3039 17.2803 31.295 17.2859C31.289 17.2897 31.2835 17.294 31.2777 17.298C31.2672 17.3052 31.2566 17.3123 31.2466 17.3202C31.2422 17.3236 31.2382 17.3274 31.234 17.3309C31.2233 17.3399 31.2125 17.3487 31.2023 17.3584C31.1963 17.3641 31.1909 17.3703 31.1852 17.3763C31.1773 17.3845 31.1691 17.3925 31.1615 17.4013C31.1488 17.416 31.1368 17.4313 31.1257 17.4472C31.1254 17.4474 31.1252 17.4477 31.125 17.4481L27.8392 22.1356C27.8163 22.1683 27.7969 22.2029 27.7816 22.2389C27.7757 22.2523 27.771 22.266 27.7664 22.2796C27.765 22.2837 27.7632 22.2877 27.7618 22.2919C27.7572 22.3063 27.7537 22.3209 27.7503 22.3355C27.7494 22.3393 27.7483 22.343 27.7475 22.3469C27.7448 22.36 27.743 22.3732 27.7412 22.3864C27.7405 22.392 27.7393 22.3977 27.7388 22.4034C27.7376 22.4142 27.7374 22.425 27.737 22.4359C27.7365 22.4441 27.7358 22.4524 27.7358 22.4608C27.7358 22.4688 27.7365 22.4769 27.7369 22.4849C27.7373 22.496 27.7376 22.5072 27.7388 22.5183C27.7393 22.5237 27.7404 22.5291 27.7411 22.5345C27.743 22.5479 27.7448 22.5613 27.7476 22.5747C27.7483 22.5784 27.7494 22.582 27.7503 22.5856C27.7537 22.6003 27.7573 22.615 27.7619 22.6296C27.7632 22.6337 27.7651 22.6377 27.7664 22.642C27.7711 22.6555 27.7758 22.6692 27.7816 22.6827C27.7971 22.7186 27.8165 22.7533 27.8395 22.786L31.1252 27.4729C31.1253 27.4731 31.1255 27.4733 31.1257 27.4735C31.1389 27.4922 31.1534 27.51 31.1686 27.5271C31.1736 27.5327 31.179 27.538 31.1842 27.5433C31.1946 27.5541 31.2054 27.5646 31.2167 27.5747C31.2233 27.5806 31.2299 27.5864 31.2367 27.5919C31.2486 27.6017 31.2611 27.6108 31.2738 27.6198C31.2795 27.6237 31.285 27.6281 31.2909 27.6319C31.3094 27.6438 31.3285 27.6548 31.3483 27.6648C31.3533 27.6673 31.3585 27.6694 31.3635 27.6718C31.3793 27.6793 31.3954 27.6862 31.4119 27.6924C31.4183 27.6948 31.4247 27.697 31.4312 27.6992C31.4469 27.7045 31.4628 27.7092 31.4791 27.7133C31.4857 27.715 31.4923 27.7167 31.499 27.7183C31.5157 27.7219 31.5326 27.7248 31.5498 27.7271C31.5561 27.728 31.5622 27.7291 31.5685 27.7298C31.5896 27.7321 31.6112 27.7334 31.633 27.7335C31.6348 27.7335 31.6365 27.7338 31.6383 27.7338C31.6386 27.7338 31.639 27.7337 31.6394 27.7337H38.416V31.8359C38.416 33.2361 37.2182 34.3751 35.7461 34.3751H3.95456C2.48246 34.3751 1.28473 33.2361 1.28473 31.8359C1.28473 31.8329 1.28432 31.8299 1.28424 31.8269V29.4914C1.28424 29.1687 1.00822 28.9055 0.66812 28.9055C0.328846 28.9055 0.0520043 29.1687 0.0520043 29.4914V31.8359C0.0520043 31.842 0.0527436 31.8479 0.05299 31.854C0.0632586 33.8919 1.80933 35.547 3.95456 35.547H35.7461C37.8975 35.547 39.6479 33.8826 39.6482 31.8365C39.6482 31.8365 39.6482 31.8364 39.6482 31.8362V27.7337H40.264C41.283 27.7337 42.112 26.9453 42.112 25.9762V16.6006C42.1118 15.6316 41.2827 14.8431 40.2637 14.8431ZM7.68338 1.31535L18.5549 4.26949C18.5554 4.26964 18.5559 4.26972 18.5564 4.26988L25.8427 6.24972H6.38658L7.68338 1.31535ZM38.4156 10.3824C37.7171 9.75784 36.778 9.37401 35.7459 9.37401C35.7448 9.37401 35.7438 9.37417 35.7427 9.37417H3.95423C2.48205 9.37417 1.28432 8.23511 1.28432 6.83503C1.28432 5.43495 2.48205 4.29589 3.95423 4.29589H5.6299L5.11648 6.24972H3.9544C3.61414 6.24972 3.33828 6.51206 3.33828 6.83566C3.33828 7.15925 3.61414 7.42159 3.9544 7.42159H5.5954C5.59622 7.42159 5.59713 7.42175 5.59803 7.42175C5.59869 7.42175 5.59935 7.42159 5.59992 7.42159H30.2397C30.2405 7.42159 30.2413 7.42175 30.242 7.42175C30.2427 7.42175 30.2433 7.42159 30.244 7.42159H34.9237C35.2639 7.42159 35.5398 7.15925 35.5398 6.83566C35.5398 6.51206 35.2639 6.24972 34.9237 6.24972H30.328L23.1376 4.29589H35.7458C37.2179 4.29589 38.4156 5.43495 38.4156 6.83503V10.3824ZM40.8795 25.9759C40.8795 26.2988 40.6033 26.5616 40.2637 26.5616H31.9672L29.0921 22.4605L31.9672 18.3588H40.2637C40.2724 18.3588 40.2807 18.3578 40.2893 18.3575C40.496 18.3548 40.6944 18.3198 40.8795 18.2574V25.9759ZM40.2637 17.1863C40.2595 17.1863 40.2553 17.1868 40.251 17.1869H39.6479V16.015H40.2637C40.6033 16.015 40.8795 16.2777 40.8795 16.6006C40.8795 16.9235 40.6033 17.1863 40.2637 17.1863Z" fill="white"/>
</svg>
